This is a stereoscopic 3D rip of IMAX Dinosaurs: Giants of Patagonia, for new 3D TVs or computers with Nvidia 3D Vision. Tested with Stereoscopic Player. Enjoy!

Title: Dinosaurs: Giants of Patagonia (2007)
Rated: Not Rated
Runtime: 40 Minutes
Genre: Documentary

Description:
If it weren't for a series of cataclysmic events, a comet impact being first on the list, our planet could well still be the domain of dinosaurs. Following Pr Rodolfo Coria, a world-reknown Argentinian paleontologist, we visit sites of major discoveries he has contributed to in Patagonia and travel back in time to see these amazing beasts come to life in 3D. Patagonia has given us the largest living animal to ever walk the Earth: the titanesque plant-eating Argentinosaur, and its nemesis, the Giganotosaur, a bipedal carnivore that could easily challenge the famous T-Rex.
-From IMDB Page: http://www.imdb.com/title/tt0899143/

General
Unique ID : 199392215813687164620311618187888891391 (0x96018B3DC5DF3D84B2EFF48EDE5B15FF)
Complete name : [filepath]\IMAX Dinosaurs - Giants of Patagonia 3D.mkv
Format : Matroska
File size : 3.19 GiB
Duration : 40mn 34s
Overall bit rate : 11.3 Mbps
Encoded date : UTC 2010-12-11 15:40:23
Writing application : mkvmerge v4.3.0 ('Escape from the Island') gemaakt op Sep 5 2010 10:30:51
Writing library : libebml v1.0.0 + libmatroska v1.0.0

Video
ID : 1
Format : AVC
Format/Info : Advanced Video Codec
Format profile : High@L4.0
Format settings, CABAC : Yes
Format settings, ReFrames : 4 frames
Format settings, GOP : M=4, N=47
Codec ID : V_MPEG4/ISO/AVC
Duration : 40mn 34s
Bit rate : 10 000 Kbps
Width : 1 920 pixels
Height : 1 080 pixels
Display aspect ratio : 16:9
Frame rate mode : Variable
Frame rate : 23.976 fps
Color space : YUV
Chroma subsampling : 4:2:0
Bit depth : 8 bits
Scan type : Progressive
Bits/(Pixel*Frame) : 0.201
Stream size : 2.70 GiB (85%)
Writing library : x264 core 107 r1745 4785e8e

Audio
ID : 2
Format : DTS
Format/Info : Digital Theater Systems
Codec ID : A_DTS
Duration : 40mn 34s
Bit rate mode : Constant
Bit rate : 1 510 Kbps
Channel(s) : 6 channels
Channel positions : Front: L C R, Side: L R, LFE
Sampling rate : 48.0 KHz
Bit depth : 24 bits
Compression mode : Lossy
Stream size : 438 MiB (13%)

